<?xml version='1.0' encoding='utf-8'?>
<svg xmlns="http://www.w3.org/2000/svg" enable-background="new 0 0 1400 980" version="1.1" viewBox="0 0 1400 980"> <rect width="1400" height="980" fill="#fafdff" pointer-events="none"/> <g transform="matrix(7.9599 0 0 7.9599 -4481.5 -1388.5)"> <g> <path class="st0" d="m699.8 231c-5.8 14.1-47.1 44.5-47.8 45-0.7-0.5-42-30.9-47.8-45s0.5-30.7 14.2-36.7c12.4-5.4 27-0.6 33.6 11.2 6.7-11.8 21.2-16.6 33.6-11.2 13.7 6 20.1 22.5 14.2 36.7z" fill="#ff142b"/> </g> </g> <g transform="matrix(4.4248 -1.872 .056302 .13308 -12.058 409.13)"> <g> <path class="st0" d="M58,49h100v100H58V49z" fill="#fafdff"/> </g> </g> <g transform="matrix(4.4248 -1.872 .056302 .13308 270.58 938.81)"> <g> <path class="st0" d="M58,49h100v100H58V49z" fill="#fafdff"/> </g> </g> <g transform="matrix(4.4248 -1.872 .056302 .13308 17.252 356.79)"> <g> <path class="st0" d="M58,49h100v100H58V49z" fill="#fafdff"/> </g> </g> <g transform="matrix(4.4248 -1.872 .056302 .13308 247.55 913.68)"> <g> <path class="st0" d="M58,49h100v100H58V49z" fill="#fafdff"/> </g> </g> <g transform="matrix(4.4248 -1.872 .056302 .13308 19.346 436.34)"> <g> <path class="st0" d="M58,49h100v100H58V49z" fill="#fafdff"/> </g> </g> <g transform="matrix(4.4248 -1.872 .056302 .13308 291.51 859.25)"> <g> <path class="st0" d="M58,49h100v100H58V49z" fill="#fafdff"/> </g> </g> <g transform="matrix(9.9083 0 0 9.9083 -5771.5 -9114.2)"> <g> <path class="st0" d="m654.1 1014.7-1.8-1.3c-0.4-0.3-42.6-31.1-48.8-46.3-6.5-15.7 0.6-33.9 15.7-40.6 12.4-5.5 26.7-1.7 34.8 8.6 8.2-10.3 22.4-14 34.8-8.6 15.1 6.7 22.2 24.9 15.8 40.6-5.8 14-41.6 41-48.8 46.2l-1.7 1.4zm-23.1-84.7c-3.2 0-6.4 0.6-9.4 2-12.2 5.4-17.9 20.1-12.6 32.8 4.4 10.7 33 33.5 45 42.4 15.6-11.7 40.9-32.4 45.1-42.4 5.2-12.7-0.5-27.4-12.6-32.9-11-4.8-23.9-0.6-29.8 9.9l-2.6 4.6-2.6-4.6c-4.4-7.4-12.3-11.8-20.5-11.8z" fill="#ff142b"/> </g> </g> <g transform="matrix(.8215 -1.0601 1.0601 .8215 -564.09 662.8)"> <g> <path class="st0" d="m699.8 231c-5.8 14.1-47.1 44.5-47.8 45-0.7-0.5-42-30.9-47.8-45s0.5-30.7 14.2-36.7c12.4-5.4 27-0.6 33.6 11.2 6.7-11.8 21.2-16.6 33.6-11.2 13.7 6 20.1 22.5 14.2 36.7z" fill="#ff142b"/> </g> </g> <g transform="matrix(.78653 1.0863 -1.0863 .78653 901.16 -777.42)"> <g> <path class="st0" d="m699.8 231c-5.8 14.1-47.1 44.5-47.8 45-0.7-0.5-42-30.9-47.8-45s0.5-30.7 14.2-36.7c12.4-5.4 27-0.6 33.6 11.2 6.7-11.8 21.2-16.6 33.6-11.2 13.7 6 20.1 22.5 14.2 36.7z" fill="#ff142b"/> </g> </g> <g transform="matrix(-.65843 1.1684 -1.1684 -.65843 1917 -99.742)"> <g> <path class="st0" d="m699.8 231c-5.8 14.1-47.1 44.5-47.8 45-0.7-0.5-42-30.9-47.8-45s0.5-30.7 14.2-36.7c12.4-5.4 27-0.6 33.6 11.2 6.7-11.8 21.2-16.6 33.6-11.2 13.7 6 20.1 22.5 14.2 36.7z" fill="#ff142b"/> </g> </g> <g transform="matrix(-.8323 -1.0516 1.0516 -.8323 540.17 1442.5)"> <g> <path class="st0" d="m699.8 231c-5.8 14.1-47.1 44.5-47.8 45-0.7-0.5-42-30.9-47.8-45s0.5-30.7 14.2-36.7c12.4-5.4 27-0.6 33.6 11.2 6.7-11.8 21.2-16.6 33.6-11.2 13.7 6 20.1 22.5 14.2 36.7z" fill="#ff142b"/> </g> </g> <g transform="matrix(-1.1065 -.75779 .75779 -1.1065 1055.5 1570.9)"> <g> <path class="st0" d="m699.8 231c-5.8 14.1-47.1 44.5-47.8 45-0.7-0.5-42-30.9-47.8-45s0.5-30.7 14.2-36.7c12.4-5.4 27-0.6 33.6 11.2 6.7-11.8 21.2-16.6 33.6-11.2 13.7 6 20.1 22.5 14.2 36.7z" fill="#ff142b"/> </g> </g> <g transform="matrix(-.88867 1.0044 -1.0044 -.88867 1785.6 314.36)"> <g> <path class="st0" d="m699.8 231c-5.8 14.1-47.1 44.5-47.8 45-0.7-0.5-42-30.9-47.8-45s0.5-30.7 14.2-36.7c12.4-5.4 27-0.6 33.6 11.2 6.7-11.8 21.2-16.6 33.6-11.2 13.7 6 20.1 22.5 14.2 36.7z" fill="#ff142b"/> </g> </g> <g transform="matrix(4.5326 0 0 4.5326 -2246.9 -606.92)"> <g> <path class="st0" d="m699.8 231c-5.8 14.1-47.1 44.5-47.8 45-0.7-0.5-42-30.9-47.8-45s0.5-30.7 14.2-36.7c12.4-5.4 27-0.6 33.6 11.2 6.7-11.8 21.2-16.6 33.6-11.2 13.7 6 20.1 22.5 14.2 36.7z" fill="#fafdff"/> </g> </g> <g transform="matrix(.47799 0 0 .47799 -261.29 197.97)"> <g> <path class="st0" d="m654.1 1014.7-1.8-1.3c-0.4-0.3-42.6-31.1-48.8-46.3-6.5-15.7 0.6-33.9 15.7-40.6 12.4-5.5 26.7-1.7 34.8 8.6 8.2-10.3 22.4-14 34.8-8.6 15.1 6.7 22.2 24.9 15.8 40.6-5.8 14-41.6 41-48.8 46.2l-1.7 1.4zm-23.1-84.7c-3.2 0-6.4 0.6-9.4 2-12.2 5.4-17.9 20.1-12.6 32.8 4.4 10.7 33 33.5 45 42.4 15.6-11.7 40.9-32.4 45.1-42.4 5.2-12.7-0.5-27.4-12.6-32.9-11-4.8-23.9-0.6-29.8 9.9l-2.6 4.6-2.6-4.6c-4.4-7.4-12.3-11.8-20.5-11.8z" fill="#ff142b"/> </g> </g> <g transform="matrix(.47799 0 0 .47799 -277.72 -416.22)"> <g> <path class="st0" d="m654.1 1014.7-1.8-1.3c-0.4-0.3-42.6-31.1-48.8-46.3-6.5-15.7 0.6-33.9 15.7-40.6 12.4-5.5 26.7-1.7 34.8 8.6 8.2-10.3 22.4-14 34.8-8.6 15.1 6.7 22.2 24.9 15.8 40.6-5.8 14-41.6 41-48.8 46.2l-1.7 1.4zm-23.1-84.7c-3.2 0-6.4 0.6-9.4 2-12.2 5.4-17.9 20.1-12.6 32.8 4.4 10.7 33 33.5 45 42.4 15.6-11.7 40.9-32.4 45.1-42.4 5.2-12.7-0.5-27.4-12.6-32.9-11-4.8-23.9-0.6-29.8 9.9l-2.6 4.6-2.6-4.6c-4.4-7.4-12.3-11.8-20.5-11.8z" fill="#ff142b"/> </g> </g> <g transform="matrix(.47799 0 0 .47799 408.35 -405.95)"> <g> <path class="st0" d="m654.1 1014.7-1.8-1.3c-0.4-0.3-42.6-31.1-48.8-46.3-6.5-15.7 0.6-33.9 15.7-40.6 12.4-5.5 26.7-1.7 34.8 8.6 8.2-10.3 22.4-14 34.8-8.6 15.1 6.7 22.2 24.9 15.8 40.6-5.8 14-41.6 41-48.8 46.2l-1.7 1.4zm-23.1-84.7c-3.2 0-6.4 0.6-9.4 2-12.2 5.4-17.9 20.1-12.6 32.8 4.4 10.7 33 33.5 45 42.4 15.6-11.7 40.9-32.4 45.1-42.4 5.2-12.7-0.5-27.4-12.6-32.9-11-4.8-23.9-0.6-29.8 9.9l-2.6 4.6-2.6-4.6c-4.4-7.4-12.3-11.8-20.5-11.8z" fill="#ff142b"/> </g> </g> <g transform="matrix(.47799 0 0 .47799 999.94 -225.18)"> <g> <path class="st0" d="m654.1 1014.7-1.8-1.3c-0.4-0.3-42.6-31.1-48.8-46.3-6.5-15.7 0.6-33.9 15.7-40.6 12.4-5.5 26.7-1.7 34.8 8.6 8.2-10.3 22.4-14 34.8-8.6 15.1 6.7 22.2 24.9 15.8 40.6-5.8 14-41.6 41-48.8 46.2l-1.7 1.4zm-23.1-84.7c-3.2 0-6.4 0.6-9.4 2-12.2 5.4-17.9 20.1-12.6 32.8 4.4 10.7 33 33.5 45 42.4 15.6-11.7 40.9-32.4 45.1-42.4 5.2-12.7-0.5-27.4-12.6-32.9-11-4.8-23.9-0.6-29.8 9.9l-2.6 4.6-2.6-4.6c-4.4-7.4-12.3-11.8-20.5-11.8z" fill="#ff142b"/> </g> </g> <g transform="matrix(.47799 0 0 .47799 864.37 247.26)"> <g> <path class="st0" d="m654.1 1014.7-1.8-1.3c-0.4-0.3-42.6-31.1-48.8-46.3-6.5-15.7 0.6-33.9 15.7-40.6 12.4-5.5 26.7-1.7 34.8 8.6 8.2-10.3 22.4-14 34.8-8.6 15.1 6.7 22.2 24.9 15.8 40.6-5.8 14-41.6 41-48.8 46.2l-1.7 1.4zm-23.1-84.7c-3.2 0-6.4 0.6-9.4 2-12.2 5.4-17.9 20.1-12.6 32.8 4.4 10.7 33 33.5 45 42.4 15.6-11.7 40.9-32.4 45.1-42.4 5.2-12.7-0.5-27.4-12.6-32.9-11-4.8-23.9-0.6-29.8 9.9l-2.6 4.6-2.6-4.6c-4.4-7.4-12.3-11.8-20.5-11.8z" fill="#ff142b"/> </g> </g> <g transform="matrix(.47799 0 0 .47799 1012.3 448.57)"> <g> <path class="st0" d="m654.1 1014.7-1.8-1.3c-0.4-0.3-42.6-31.1-48.8-46.3-6.5-15.7 0.6-33.9 15.7-40.6 12.4-5.5 26.7-1.7 34.8 8.6 8.2-10.3 22.4-14 34.8-8.6 15.1 6.7 22.2 24.9 15.8 40.6-5.8 14-41.6 41-48.8 46.2l-1.7 1.4zm-23.1-84.7c-3.2 0-6.4 0.6-9.4 2-12.2 5.4-17.9 20.1-12.6 32.8 4.4 10.7 33 33.5 45 42.4 15.6-11.7 40.9-32.4 45.1-42.4 5.2-12.7-0.5-27.4-12.6-32.9-11-4.8-23.9-0.6-29.8 9.9l-2.6 4.6-2.6-4.6c-4.4-7.4-12.3-11.8-20.5-11.8z" fill="#ff142b"/> </g> </g> <g transform="matrix(.47799 0 0 .47799 523.38 475.27)"> <g> <path class="st0" d="m654.1 1014.7-1.8-1.3c-0.4-0.3-42.6-31.1-48.8-46.3-6.5-15.7 0.6-33.9 15.7-40.6 12.4-5.5 26.7-1.7 34.8 8.6 8.2-10.3 22.4-14 34.8-8.6 15.1 6.7 22.2 24.9 15.8 40.6-5.8 14-41.6 41-48.8 46.2l-1.7 1.4zm-23.1-84.7c-3.2 0-6.4 0.6-9.4 2-12.2 5.4-17.9 20.1-12.6 32.8 4.4 10.7 33 33.5 45 42.4 15.6-11.7 40.9-32.4 45.1-42.4 5.2-12.7-0.5-27.4-12.6-32.9-11-4.8-23.9-0.6-29.8 9.9l-2.6 4.6-2.6-4.6c-4.4-7.4-12.3-11.8-20.5-11.8z" fill="#ff142b"/> </g> </g> <g transform="matrix(.47799 0 0 .47799 -138.04 446.51)"> <g> <path class="st0" d="m654.1 1014.7-1.8-1.3c-0.4-0.3-42.6-31.1-48.8-46.3-6.5-15.7 0.6-33.9 15.7-40.6 12.4-5.5 26.7-1.7 34.8 8.6 8.2-10.3 22.4-14 34.8-8.6 15.1 6.7 22.2 24.9 15.8 40.6-5.8 14-41.6 41-48.8 46.2l-1.7 1.4zm-23.1-84.7c-3.2 0-6.4 0.6-9.4 2-12.2 5.4-17.9 20.1-12.6 32.8 4.4 10.7 33 33.5 45 42.4 15.6-11.7 40.9-32.4 45.1-42.4 5.2-12.7-0.5-27.4-12.6-32.9-11-4.8-23.9-0.6-29.8 9.9l-2.6 4.6-2.6-4.6c-4.4-7.4-12.3-11.8-20.5-11.8z" fill="#ff142b"/> </g> </g> </svg>